<svg width="800" height="600" viewBox="0 0 800 600" fill="none" xmlns="http://www.w3.org/2000/svg">
  <!-- 背景 -->
  <rect width="800" height="600" fill="white"/>
  
  <!-- 笔记本电脑 -->
  <rect x="250" y="250" width="300" height="200" rx="10" fill="#E0E0E0"/>
  <rect x="260" y="260" width="280" height="160" rx="5" fill="#F5F5F5"/>
  <rect x="270" y="270" width="260" height="140" fill="#18A058" fill-opacity="0.1"/>
  
  <!-- 显示屏内容：选课界面 -->
  <rect x="290" y="290" width="100" height="20" rx="5" fill="#18A058" fill-opacity="0.3"/>
  <rect x="290" y="320" width="220" height="15" rx="5" fill="#E0E0E0"/>
  <rect x="290" y="345" width="220" height="15" rx="5" fill="#E0E0E0"/>
  <rect x="290" y="370" width="220" height="15" rx="5" fill="#E0E0E0"/>
  
  <circle cx="410" cy="320" r="7" fill="#18A058"/>
  <circle cx="410" cy="345" r="7" fill="#18A058"/>
  <circle cx="410" cy="370" r="7" fill="#18A058"/>
  
  <!-- 笔记本键盘部分 -->
  <rect x="220" y="450" width="360" height="15" rx="7.5" fill="#D0D0D0"/>
  
  <!-- 学生形象 -->
  <circle cx="150" cy="200" r="40" fill="#18A058" fill-opacity="0.2"/>
  <rect x="130" y="250" width="40" height="100" rx="10" fill="#18A058" fill-opacity="0.2"/>
  <rect x="110" y="270" width="30" height="60" rx="10" fill="#18A058" fill-opacity="0.2"/>
  <rect x="160" y="270" width="30" height="60" rx="10" fill="#18A058" fill-opacity="0.2"/>
  
  <!-- 学生2 -->
  <circle cx="650" cy="200" r="40" fill="#18A058" fill-opacity="0.2"/>
  <rect x="630" y="250" width="40" height="100" rx="10" fill="#18A058" fill-opacity="0.2"/>
  <rect x="610" y="270" width="30" height="60" rx="10" fill="#18A058" fill-opacity="0.2"/>
  <rect x="660" y="270" width="30" height="60" rx="10" fill="#18A058" fill-opacity="0.2"/>
  
  <!-- 课程图标 -->
  <circle cx="150" cy="450" r="30" fill="#18A058" fill-opacity="0.3"/>
  <rect x="135" y="435" width="30" height="5" rx="2.5" fill="white"/>
  <rect x="135" y="445" width="30" height="5" rx="2.5" fill="white"/>
  <rect x="135" y="455" width="30" height="5" rx="2.5" fill="white"/>
  
  <circle cx="650" cy="450" r="30" fill="#18A058" fill-opacity="0.3"/>
  <rect x="635" y="445" width="30" height="10" rx="5" fill="white"/>
  <rect x="645" y="435" width="10" height="30" rx="5" fill="white"/>
  
  <!-- 标题文本 -->
  <rect x="350" y="100" width="100" height="15" rx="7.5" fill="#18A058"/>
  <rect x="300" y="125" width="200" height="10" rx="5" fill="#E0E0E0"/>
  <rect x="325" y="145" width="150" height="10" rx="5" fill="#E0E0E0"/>
</svg>